<?xml version="1.0" encoding="UTF-8" standalone="no"?>
<!DOCTYPE svg PUBLIC "-//W3C//DTD SVG 1.1//EN"
 "http://www.w3.org/Graphics/SVG/1.1/DTD/svg11.dtd">
<!-- Generated by graphviz version 2.36.0 (20140111.2315)
 -->
<!-- Title: SpeedcardsMnemonicsDomainModel Pages: 1 -->
<svg width="218pt" height="200pt"
 viewBox="0.00 0.00 218.00 200.00" xmlns="http://www.w3.org/2000/svg" xmlns:xlink="http://www.w3.org/1999/xlink">
<g id="graph0" class="graph" transform="scale(1 1) rotate(0) translate(4 196)">
<title>SpeedcardsMnemonicsDomainModel</title>
<polygon fill="white" stroke="none" points="-4,4 -4,-196 214,-196 214,4 -4,4"/>
<!-- Color -->
<g id="node1" class="node"><title>Color</title>
<polygon fill="none" stroke="black" points="43,-1 43,-37 97,-37 97,-1 43,-1"/>
<text text-anchor="middle" x="70" y="-17.1" font-family="Bitstream Vera Sans, Arial" font-size="8.00">Color</text>
</g>
<!-- Value -->
<g id="node2" class="node"><title>Value</title>
<polygon fill="none" stroke="black" points="122,-1 122,-37 176,-37 176,-1 122,-1"/>
<text text-anchor="middle" x="149" y="-17.1" font-family="Bitstream Vera Sans, Arial" font-size="8.00">Value</text>
</g>
<!-- Card -->
<g id="node3" class="node"><title>Card</title>
<polygon fill="none" stroke="black" points="30,-78 30,-114 84,-114 84,-78 30,-78"/>
<text text-anchor="middle" x="57" y="-94.1" font-family="Bitstream Vera Sans, Arial" font-size="8.00">Card</text>
</g>
<!-- Card&#45;&gt;Color -->
<g id="edge1" class="edge"><title>Card&#45;&gt;Color</title>
<path fill="none" stroke="black" d="M59.9499,-77.9813C61.5178,-68.9357 63.4833,-57.5966 65.2592,-47.3506"/>
<polygon fill="black" stroke="black" points="68.7574,-47.6618 67.0168,-37.2109 61.8602,-46.4662 68.7574,-47.6618"/>
<text text-anchor="middle" x="64.0168" y="-39.8109" font-family="Bitstream Vera Sans, Arial" font-size="8.00">1</text>
<text text-anchor="middle" x="57.4499" y="-71.5813" font-family="Bitstream Vera Sans, Arial" font-size="8.00">*</text>
</g>
<!-- Card&#45;&gt;Value -->
<g id="edge2" class="edge"><title>Card&#45;&gt;Value</title>
<path fill="none" stroke="black" d="M77.8762,-77.9813C90.257,-67.8883 106.14,-54.94 119.755,-43.8407"/>
<polygon fill="black" stroke="black" points="122.349,-46.2424 127.888,-37.2109 117.926,-40.8168 122.349,-46.2424"/>
<text text-anchor="middle" x="124.888" y="-39.8109" font-family="Bitstream Vera Sans, Arial" font-size="8.00">1</text>
<text text-anchor="middle" x="75.3762" y="-71.5813" font-family="Bitstream Vera Sans, Arial" font-size="8.00">*</text>
</g>
<!-- CardPair -->
<g id="node4" class="node"><title>CardPair</title>
<polygon fill="none" stroke="black" points="0,-155 0,-191 114,-191 114,-155 0,-155"/>
<text text-anchor="middle" x="26.5" y="-171.1" font-family="Bitstream Vera Sans, Arial" font-size="8.00">CardPair</text>
<polyline fill="none" stroke="black" points="53,-155 53,-191 "/>
<text text-anchor="middle" x="83.5" y="-171.1" font-family="Bitstream Vera Sans, Arial" font-size="8.00">mnemonic</text>
</g>
<!-- CardPair&#45;&gt;Card -->
<g id="edge3" class="edge"><title>CardPair&#45;&gt;Card</title>
<path fill="none" stroke="black" d="M57,-154.981C57,-145.936 57,-134.597 57,-124.351"/>
<polygon fill="black" stroke="black" points="60.5001,-124.211 57,-114.211 53.5001,-124.211 60.5001,-124.211"/>
<text text-anchor="middle" x="54" y="-116.811" font-family="Bitstream Vera Sans, Arial" font-size="8.00">2</text>
<text text-anchor="middle" x="54.5" y="-148.581" font-family="Bitstream Vera Sans, Arial" font-size="8.00">*</text>
</g>
<!-- AbstractCardProperty -->
<g id="node5" class="node"><title>AbstractCardProperty</title>
<polygon fill="none" stroke="black" points="102,-74.5 102,-117.5 210,-117.5 210,-74.5 102,-74.5"/>
<text text-anchor="middle" x="156" y="-107.1" font-family="Bitstream Vera Sans, Arial" font-size="8.00">AbstractCardProperty</text>
<polyline fill="none" stroke="black" points="102,-100.5 210,-100.5 "/>
<text text-anchor="middle" x="156" y="-90.1" font-family="Bitstream Vera Sans, Arial" font-size="8.00">name </text>
<text text-anchor="middle" x="156" y="-81.1" font-family="Bitstream Vera Sans, Arial" font-size="8.00"> mnemonic</text>
</g>
<!-- AbstractCardProperty&#45;&gt;Color -->
<g id="edge4" class="edge"><title>AbstractCardProperty&#45;&gt;Color</title>
<path fill="none" stroke="black" d="M124.275,-67.3326C112.717,-57.2534 99.9903,-46.1544 89.7672,-37.2389"/>
<polygon fill="none" stroke="black" points="122.207,-70.1735 132.044,-74.1083 126.808,-64.8978 122.207,-70.1735"/>
</g>
<!-- AbstractCardProperty&#45;&gt;Value -->
<g id="edge5" class="edge"><title>AbstractCardProperty&#45;&gt;Value</title>
<path fill="none" stroke="black" d="M153.116,-64.104C152.26,-54.9299 151.353,-45.2114 150.609,-37.2389"/>
<polygon fill="none" stroke="black" points="149.636,-64.4769 154.05,-74.1083 156.606,-63.8263 149.636,-64.4769"/>
</g>
</g>
</svg>
