<?xml version="1.0" encoding="UTF-8" standalone="no"?>
<!DOCTYPE svg PUBLIC "-//W3C//DTD SVG 1.1//EN"
 "http://www.w3.org/Graphics/SVG/1.1/DTD/svg11.dtd">
<!-- Generated by graphviz version 2.36.0 (20140111.2315)
 -->
<!-- Title: SpeedcardsMnemonicsDomainModel Pages: 1 -->
<svg width="191pt" height="200pt"
 viewBox="0.00 0.00 191.00 200.00" xmlns="http://www.w3.org/2000/svg" xmlns:xlink="http://www.w3.org/1999/xlink">
<g id="graph0" class="graph" transform="scale(1 1) rotate(0) translate(4 196)">
<title>SpeedcardsMnemonicsDomainModel</title>
<polygon fill="white" stroke="none" points="-4,4 -4,-196 187,-196 187,4 -4,4"/>
<!-- Color -->
<g id="node1" class="node"><title>Color</title>
<polygon fill="none" stroke="black" points="16,-1 16,-37 70,-37 70,-1 16,-1"/>
<text text-anchor="middle" x="43" y="-17.1" font-family="Bitstream Vera Sans, Arial" font-size="8.00">Color</text>
</g>
<!-- Value -->
<g id="node2" class="node"><title>Value</title>
<polygon fill="none" stroke="black" points="95,-1 95,-37 149,-37 149,-1 95,-1"/>
<text text-anchor="middle" x="122" y="-17.1" font-family="Bitstream Vera Sans, Arial" font-size="8.00">Value</text>
</g>
<!-- Card -->
<g id="node3" class="node"><title>Card</title>
<polygon fill="none" stroke="black" points="3,-78 3,-114 57,-114 57,-78 3,-78"/>
<text text-anchor="middle" x="30" y="-94.1" font-family="Bitstream Vera Sans, Arial" font-size="8.00">Card</text>
</g>
<!-- Card&#45;&gt;Color -->
<g id="edge1" class="edge"><title>Card&#45;&gt;Color</title>
<path fill="none" stroke="black" d="M32.9499,-77.9813C34.8314,-67.1266 37.2853,-52.9692 39.2974,-41.3613"/>
<polygon fill="black" stroke="black" points="40.0168,-37.2109 41.1071,-41.4596 39.6752,-39.1815 39.3335,-41.1522 39.3335,-41.1522 39.3335,-41.1522 39.6752,-39.1815 37.56,-40.8447 40.0168,-37.2109 40.0168,-37.2109"/>
<text text-anchor="middle" x="37.0168" y="-39.8109" font-family="Bitstream Vera Sans, Arial" font-size="8.00">1</text>
<text text-anchor="middle" x="30.4499" y="-71.5813" font-family="Bitstream Vera Sans, Arial" font-size="8.00">*</text>
</g>
<!-- Card&#45;&gt;Value -->
<g id="edge2" class="edge"><title>Card&#45;&gt;Value</title>
<path fill="none" stroke="black" d="M50.8762,-77.9813C64.7754,-66.6505 83.0889,-51.721 97.6517,-39.8492"/>
<polygon fill="black" stroke="black" points="100.888,-37.2109 98.9249,-41.1336 99.3378,-38.4747 97.7876,-39.7384 97.7876,-39.7384 97.7876,-39.7384 99.3378,-38.4747 96.6502,-38.3432 100.888,-37.2109 100.888,-37.2109"/>
<text text-anchor="middle" x="97.8879" y="-39.8109" font-family="Bitstream Vera Sans, Arial" font-size="8.00">1</text>
<text text-anchor="middle" x="48.3762" y="-71.5813" font-family="Bitstream Vera Sans, Arial" font-size="8.00">*</text>
</g>
<!-- CardPair -->
<g id="node4" class="node"><title>CardPair</title>
<polygon fill="none" stroke="black" points="-0.5,-155 -0.5,-191 60.5,-191 60.5,-155 -0.5,-155"/>
<text text-anchor="middle" x="30" y="-180.1" font-family="Bitstream Vera Sans, Arial" font-size="8.00">CardPair</text>
<polyline fill="none" stroke="black" points="-0.5,-173 60.5,-173 "/>
<text text-anchor="middle" x="30" y="-162.1" font-family="Bitstream Vera Sans, Arial" font-size="8.00">mnemonic</text>
</g>
<!-- CardPair&#45;&gt;Card -->
<g id="edge3" class="edge"><title>CardPair&#45;&gt;Card</title>
<path fill="none" stroke="black" d="M30,-154.981C30,-144.127 30,-129.969 30,-118.361"/>
<polygon fill="black" stroke="black" points="30,-114.211 31.8001,-118.211 30,-116.211 30.0001,-118.211 30.0001,-118.211 30.0001,-118.211 30,-116.211 28.2001,-118.211 30,-114.211 30,-114.211"/>
<text text-anchor="middle" x="27" y="-116.811" font-family="Bitstream Vera Sans, Arial" font-size="8.00">2</text>
<text text-anchor="middle" x="27.5" y="-148.581" font-family="Bitstream Vera Sans, Arial" font-size="8.00">*</text>
</g>
<!-- AbstractCardProperty -->
<g id="node5" class="node"><title>AbstractCardProperty</title>
<polygon fill="none" stroke="black" points="75,-74.5 75,-117.5 183,-117.5 183,-74.5 75,-74.5"/>
<text text-anchor="middle" x="129" y="-107.1" font-family="Bitstream Vera Sans, Arial" font-size="8.00">AbstractCardProperty</text>
<polyline fill="none" stroke="black" points="75,-100.5 183,-100.5 "/>
<text text-anchor="middle" x="129" y="-90.1" font-family="Bitstream Vera Sans, Arial" font-size="8.00">name </text>
<text text-anchor="middle" x="129" y="-81.1" font-family="Bitstream Vera Sans, Arial" font-size="8.00"> mnemonic</text>
</g>
<!-- AbstractCardProperty&#45;&gt;Color -->
<g id="edge4" class="edge"><title>AbstractCardProperty&#45;&gt;Color</title>
<path fill="none" stroke="black" d="M97.2748,-67.3326C85.7172,-57.2534 72.9903,-46.1544 62.7672,-37.2389"/>
<polygon fill="none" stroke="black" points="95.2071,-70.1735 105.044,-74.1083 99.808,-64.8978 95.2071,-70.1735"/>
</g>
<!-- AbstractCardProperty&#45;&gt;Value -->
<g id="edge5" class="edge"><title>AbstractCardProperty&#45;&gt;Value</title>
<path fill="none" stroke="black" d="M126.116,-64.104C125.26,-54.9299 124.353,-45.2114 123.609,-37.2389"/>
<polygon fill="none" stroke="black" points="122.636,-64.4769 127.05,-74.1083 129.606,-63.8263 122.636,-64.4769"/>
</g>
</g>
</svg>
